<?xml version="1.0" encoding="UTF-8"?>
<svg id="color" xmlns="http://www.w3.org/2000/svg" viewBox="0 0 2368.66 2811.79">
  <g>
    <path d="M1205.12,1933.21c6.59,23.29,11.39,44.41,14.69,64.76,24.8,24.22,52.44,40.78,73.05,45.53,2.71.62,5.81,1.13,9.28,1.52,1.97-81.84-35.62-109.04,40.22-188.74,56.07-58.93,33.78,16.33,14.49,35.63-69.49,69.49-19.49,173.5,16.02,112.84,35.52-60.69,49.32-125.2,116.6-146,41.37-12.85,52.57-10.44.26,24.11-56.78,37.53-77.82,119.7-84.58,156.26,61.63-8.44,143.92-24.74,242.69-49.6,70.31-17.68,102.97,36.77,127.39,89.69,21.74-17.47,69.14-51.14,115.99-78.41,20.5-48.34,24.63-156.16-51.86-188.57-72.31-30.63-121.8-17.35-210.36,8.36-113.09,32.88-224.11-72.71-236.65-114.94-.46-1.55-.86-3.05-1.22-4.52-69.26,77.88-188.28,89.99-228.38,91.84.71,3.1,1.48,6.24,2.29,9.39,6.5,25.03,14.41,49.37,22.06,72.92,5.16,15.89,10.5,32.32,15.36,48.82.36,1.2.71,2.39,1.06,3.59l1.6,5.55ZM1637.84,1881.74c4.51-7.47,38.2,51.64,105.27,50.84,56.79-.7,51.68-23.93,62.45-28.59,19.27-8.26,6.14,46.02-44.03,46.06-16.61.02-43.21-3.9-57.88-10.46-29.64-13.15-73.03-45.9-65.82-57.86Z"/>
    <path d="M2251.04,1742.72c-15.78-36.07-34.7-56.96-47.51-68,21.74-29.56,32.29-59.05,16.11-81.74-50.29-70.38-92.18-49.24-125.69-72.72-45.84-32.11-73.29-86.82-73.29-86.82-20.96,0,16.74,84.47,67.03,112.62,50.26,28.15,113.1,14.07,106.8,77.43-5.88,59.18-110.43,124.48-124.16,132.82-2.11-66.76-16.16-136.56-76.9-210.26-61.57-74.71-84.65-173.18-74.05-238.29,10.67-20.45,34.16-45.19,80.33-15.09,42.4,27.67,81.68,147.81,106.82,140.77,25.13-7.03,62.83-49.27,113.12-49.27s69.1,56.31,69.1,56.31c0,0,0-5.27-1.46-13.74,8.71,13.27,17.7,32.76,24.92,65.25.84,3.71,1.89,8.09,3.12,13.16,5.28,21.89,13.25,54.98,16.43,86.14,4.6,45.15-3.81,58.7-7.64,62.43-1.44,1.4-5.83,5.67-20.93,1.61-8.71-2.34-24.91-6.71-33.24,6.6-3.3,5.27-5.49,13.97,2.83,25.45,2.08,2.87,4.74,6,8.03,9.8-14.98,10.18-29.53,25.27-29.74,45.52Z"/>
    <path d="M1155.15,1743.06c233.7,26.6,296.86-137.16,239.43-299.16-39.13-110.33-61.18-156.98-41.49-220.95,20.92-68.06,91.16-203.85,74.83-261.1-24.07-84.45-65.98-154.85-180.09-63.36,41.88-56.31,75.36-122,142.4-56.31-8.4-75.08,81.67-197.07,175.93-150.15-141.38-22.28-167.56,122-125.66,206.46,15,30.27,20.05,53.75,19.3,76.46,22.13-37.83,74.38-70.88,118.93-67.05,54.45,4.68,94.76,36.17,127.02,101.64,23.59,47.87,114.36,132.38,165.15,64.92,26.93-35.78,52.69-86.66,80.15-105.67,21.58-41.29,75.5-163.89,6.76-248.59-83.79-103.24-152.89-144.66-152.89-144.66,0,0,45.88-107.62-31.41-162.7-15.02-10.71-45.21-14.86-61.85-22.02,7.49,50.82-8.61,78.1-21.97,84.78-7.71,25.43-11.24,62.76,10.94,106.66,15.59,30.81,61.57,42.25,72.47,90.01,10.86,47.76-64.14,80.27-43.97,121.71,20.2,41.45,80.73,24.03,67.8,45.93-12.93,21.9-46.04,2.34-46.04,2.34-38.28-10.78-75.54-80.03-50.21-94.61,25.35-14.56,72.42-28.13,49.66-65.19-20.66-33.65-126.63-137.12-73.6-214.83.56-24.28,23.98-90.82-13.21-114.61-39.3-25.18-103.64-63.36-160.2-21.12-56.57,42.24-94.06,123.71-157.07,151.33-57.38,25.15-106.82,32.54-140.48,9.86-.38,4.39-1,8.58-1.9,12.62-1.49,6.75-3.58,12.72-6.43,18.32-8.96,17.45-29.96,58.33-40.1,116.02-1.86,10.53-3.28,21.35-4.23,32.17-.44,5.08-.78,10.19-1.01,15.32,27.35-32.03,75.2-66.21,137.61-70.57,69.11-21.12,119.37-63.35,131.94-91.51-9.23,41.32-52.3,78.86-74.57,95.91,52.88,13.74,66.02,51.58,55.71,55.42-18.85,7.03-43.97-42.24-113.08-35.2-46.5,4.74-109.14,49.93-133.62,109.96,4.37,18.56,12.59,37.8,27.15,71.89l1.1,2.59c19.18,44.88,14.27,66.38,10.32,83.66-.68,2.97-1.32,5.77-1.78,8.5-2.14,12.78-5.33,23.55-9.02,36.02-7.84,26.49-17.6,59.45-23.44,134.21-.28,3.6-.54,7.14-.79,10.66l-.92,14.48c-.02.38-.05.77-.07,1.15l-.12,2.02c-.41,7.47-.61,15.01-.61,22.96,0,9.55.32,19.3.96,28.97l.03.52c3.05,45.63,12.71,83.21,20.81,110.93,8.04,27.82,18.54,80.8,24.34,116.54,4.54,27.99,4.54,34.58,4.54,36.72.04,27.81-1.42,52.35-4.46,75.01-5.3,39.66-15.6,76.02-34.43,121.59-12.41,30.05-17.7,71.22-14.56,113.1ZM1583.57,721.51c-65.21,142.41-3.56,94.54-5.35,105.88-2.57,16.23-80.18,29.53-20.68-74.14,26.24-45.75,26.03-31.74,26.03-31.74ZM1509.76,425.51c35.66,20.52,50.56,59.05,50.56,59.05,18.79,42.42-10.98,117.18-43.91,109.2-32.92-7.97-8.77-19.34,12.01-47.58,18.74-25.48-1.76-97.91-22.35-114.25-17.76-14.11-15.12-17.28,3.69-6.42ZM1233.13,1100.29c-6.28,79.76,24.65,75.76,29.37,91.51,8.33,28.15-60.79,2.34-54.48-68.04,2.08-23.31,10.56-60.09,20.96-79.77,20.91-39.8,69.1-96.2,83.78-84.45,9.17,7.34-72.17,46.55-79.63,140.76ZM1291.27,1486.57c4.04-79.91-26.77-75.04-31.92-90.64-9.12-27.91,60.7-4.05,56.37,66.48-1.43,23.35-8.87,60.36-18.71,80.33-19.78,40.37-66.37,98.1-81.37,86.77-9.38-7.08,70.84-48.56,75.64-142.94Z"/>
    <path d="M2031.1,2137.3c-119.37-4.69-176.74,37.01-207.34,140.79-18.02,61.15-70.74,61.21-90.56,58.92-9.8-28.01-29.37-58.26-66.52-108.19,79.51,6.85,136.18-76.3,115.99-132.65,48.85-25.34,164.87-115.54,201.68-108.73,71.66,13.26,85.44-57.14,84.46-103.53-.62-29.39,1.09-59.31,1.64-89.86,21.8-15.04,83.59-59.54,122.84-106.36,22.35,29.95,73.33,90.51,51.45,203.26-19.45,100.17-119.23,250.08-213.65,246.35Z"/>
    <path d="M1207.11,2588.53l-2.21,3.78c.97,1.7,1.95,3.42,2.95,5.17,24.02,42.14,56.92,99.85,99.1,132.98,23.14,18.17,86.25,45.67,128.65,45.72,17.12,0,54.89-2.39,92.41-20.61,31.28-38.27,43.7-106.35,35.62-137.27-11.78-45.06,5.88-50.08,19.66-10.03,8.71,25.5,5.96,84.5-4.64,122.76,7.52.98,15.86,4.25,25.23,7.91,20.91,8.19,49.56,19.41,79.57,13.89,55.24-10.13,66.29-31.66,73.6-45.9,2.62-5.1,5.31-10.33,9.47-14.63-31.29-31.95-33.47-96.77,5.67-124.58,52.96-37.66,28.39,0,0,28.23-18.53,18.43,7.04,79.48,57.18,95.2,25.12-.72,46.63-12.55,57.33-23.17,28.28-28.28,42.38-49.11,54.44-68.07,1.83-3.04,4.88-15.07,6.7-22.25,2.12-8.37,4.32-17.03,6.92-24.04,1.97-5.31,7.96-21.48,23.78-21.96,15.81-.52,23.48,14.85,27.86,27.05,6.15-5.02,14.05-13.27,18.1-17.5,4.78-4.99,8.9-9.3,12.52-12.25,10.09-8.21,18.23-19.44,23.53-32.47.6-1.47,1.23-3,1.89-4.58,16.42-39.24,49.59-70.44,91.11-85.77,33.14-22.93,38.77-30.72,56.87-55.76,6.05-8.37,13.58-18.78,23.75-31.94,15.75-20.38,22.1-37.74,19.43-53.07-3.18-18.2-19.48-36.8-48.46-55.28-7.02-4.47-10.17-13.03-7.65-20.82,1.25-3.88,5.68-12.91,19.85-12.6,1.92.04,4.31.17,7.33.35,17.32.98,70.03,3.99,85.05-16.89,6.39-8.89,5.65-23.34-2.21-42.96-11.49-28.68.15-64.1,10.42-95.35,5.1-15.51,10.37-31.55,10.35-40.76-.03-9.17-2.14-23.53-4.59-40.16-5.91-40.17-13.25-90.16-1.49-128.92,10.12-33.36-2.7-62.92-18.04-85.45-18.05-7.97-35.24,23.41-40.98,49.6,1.23,4.12,2.41,8.38,3.53,12.79,25.14,98.52-15.69,193.53-91.11,299.12-75.37,105.59-161.24,70.39-217.76,77.42-56.58,7.04-78.86,36.33-108.8,134.42-26.26,86.11-85.06,73.08-109.28,63.4,1.67,10.71,2.3,21.87,2.3,34.44,0,21.51-5.8,38.91-13.09,52.33,18.63-10.01,40.98-14.47,67.57-10.09,71.18,11.73,115.17,37.55,115.17,37.55,0,0,.54-112.04,88.49-147.23,87.96-35.2,143.78,75.86,95.82,100.3-28.78,14.65-27.23-1.16-27.23-1.16,0,0,58.13-52.8-34.57-77.42-24.43-6.51-78,34.57-78,69.78s12.01,88.57-44.51,74.52c-56.54-14.08-105.86-46.61-150.8-28.19-85.88,35.21-91.09,126.7-109.94,140.79-18.88,14.08-3.15,0-3.15,0,0-33.8,17.31-109.39,64.32-147.59,5.82-19.12,10.37-46.83,9-84.69-2.06-56.26-129.88-145.48-90.06-152.5,113.09-39.87,106.8-126.69,106.8-126.69-28.28-123.19-121.47-72.75-222.03-44.59-26.58,7.44-53.59,14.23-79.96,19.67-6.59,100.26,27.1,202.72,77.83,215.6,52.94,13.46,23.49,23.92-11.9,20.18-56.85-6.01-119.15-170.04-93.6-230.55-62.62,10.68-119.18,11.96-154.16-6.12-9.73-5.03-19.64-13.1-29.17-23.44,2.87,71.56-7.65,184.47-18.09,258.71,43.3-26.04,109.1-31.67,156.14,8.74,0,0,.12.34.34.99.93.59,1.82,1.2,2.65,1.82,22.32,16.67,44.64,66.67,66.93,133.32,22.3,66.67,74.41,41.66,126.46,25.01-14.88,49.97-119.03,83.3-141.32,33.33,0,24.99-66.93,116.64-66.93,58.31,22.32,16.67,44.62-74.99,29.74-141.64-3.5-15.67-7.86-30.82-13.16-44.94-63.81-102.13-137.26-41.14-177.78,8.43-.3,1-.61,2.01-.89,2.99l2.27,5.7-4.97,4.71c-3.04,13.01-4.52,25.06-4.52,36.69,0,10.03-.63,20.58-1.3,31.74-1.92,31.96-4.09,68.18,10.38,89.67,3.03,4.48,6.42,9.97,10.99,17.79l5.25,8.99ZM2096.06,2274.44c-8.08,6.9-23.48,12.91-33.33,14.65-29.74,5.26-42.59-37.71-30.4-32.99,6.82,2.67,5.96,22.19,39.68,16.77,39.83-6.42,54.27-58.27,57.64-52.64,5.39,9.01-17.26,40.34-33.6,54.21ZM1549.08,2151.04c-19.94,30.23-1.79,37.5-2.4,45.17-1.13,13.7-34.51-16.51-16.49-42.96,5.96-8.76,18.28-21.1,28.16-26.02,19.9-9.98,58.49-18.8,64.29-9.87,3.62,5.58-49.99-2.02-73.55,33.67ZM1516.17,2387.54c3.85-9.77,42.5-10.92,63.46-6.43,10.4,2.19,24.55,10.74,31.93,17.48,22.3,20.36-3.91,56.75-7.61,44.21-2.04-7.03,13.95-18.26-10.91-41.68-29.38-27.65-79.28-7.47-76.87-13.58ZM1392.7,2691.86c80,21.38,85-44.47,94.1-47.79,13.02-4.75-36.92,102.87-85.5,69.54-21.45-14.69-8.59-21.75-8.59-21.75ZM1244.51,2451.33c2.17-18.34,115.56,65.19,37.99,126.05-34.21,26.87-35.3,8.42-35.3,8.42,82.13-105.16-4.19-121.67-2.68-134.47Z"/>
    <path d="M2250.41,1358.61c1.38-6.4,5.22-10.75,7.76-13.6,4.95-5.57,18.09-20.37,5.45-100.56-5.59-35.51-58.07-70.25-77.83-83.33-3.17-2.1-5.68-3.76-7.59-5.13-11.82-8.47-10.53-17.97-8.71-22.88,2.99-8.04,10.89-12.69,19.66-11.57,26.6,3.38,44.62-.87,53.56-12.66,16.39-21.61,5.77-68.69-5.37-95.06-2.7-6.4-9.57-14.1-17.54-23.02-19.66-22.03-46.59-52.19-57.06-109.21-4.06-22.13-7.74-46.77-11.29-70.61-4.7-31.51-9.56-64.09-15.14-89.42-5.01-22.7-9.38-33.67-12.12-38.85-.65.78-1.37,1.72-2.17,2.83-13.91,19.4-29.28,36.53-47.41,30.61-16.99-5.54-18.89-26-19.71-34.74-.89-9.54-.97-21.29-.89-33.92-3.04-4.1-6.56-8.44-10.67-12.99-46.43-51.49-105.94-17.43-110.38-34.24-5.93-22.45,81.35-30.24,120.95,2.48-.28-9.42-.85-18.63-1.93-27.05-3.15-24.65-9.36-31.57-11.88-33.41-27.93-20.29-59.93-48.93-86.3-132.46-1.98-6.34-11.5-21.92-32.25-46.6-7.48-8.89-16.96-15.78-27.43-19.94l-.76-.3c-32.36-12.72-60.08-33.53-80.67-60.13-2.2,2.27-4.75,3.88-7.62,4.85-3.28,21.12-.14,41.78,7.06,51.06,2.32,8.04-8,7.77-15.8-7.51-6.19-12.13-16.54-33.17-11.99-48.55-4.77-4.79-7.33-11.14-8.52-14.11-2.56-6.37-5.17-14.77-7.94-23.66-3.26-10.47-6.96-22.33-10.95-32.09-5.17-12.64-8.46-15.77-8.92-16.17-24.33-14.81-34.97-16.73-60.58-21.35-8.45-1.52-18.02-3.25-29.89-5.75-34.19-7.07-60.24-18.12-81.66-30.76-92.33-1.73-117.52,67.46-130.06,59.03-29.97-41.48-91.74-97.54-151.76-34.74,0,0,0-32.52,47.64-43.74,58.17-13.7,105.08,42.69,105.08,42.69,0,0,33.78-46.77,90.97-50.27-6.05-4.94-11.8-9.89-17.42-14.71-5.2-4.47-10.1-8.69-15.08-12.76-13.44-10.88-41.35-33.45-71.56-43.48-31.91-10.59-59.22-5.13-83.51,16.7-12.03,10.8-28.49,8.95-47.55,6.81-16.63-1.87-35.47-3.98-54.54,1.11-20.16,5.39-34.5,13.96-43.52,26.02l1.41,3.19-3.2,7.22c-9.74,21.94-6.61,51.58-3.84,77.73,1.37,12.92,2.66,25.13,2.54,36.44-.29,30.1-4.37,58.36-12.12,84-7.64,25.25-8.65,51.79-2.93,76.76,2.9,12.65,5.51,24.36,7.76,34.76,2.23,10.21,4.2,19.65,5.87,28.19,49.75,51.04,109.14,42.02,150.73,5.76,56.55-49.27,130.56-141.78,199.65-148.82,3.76-.38,7.54-.67,11.34-.86,73.36-8.09,92.66-61.54,98.61-66.01,21.58-16.11-12.54,56.32-31.39,70.38-1,.75-2.12,1.4-3.34,1.98,34.27,9.21,63.71,28.31,77.83,59.27,66.28,4,152.9,61.13,128.66,194.5,8.65,11.6,217.26,138.83,200.47,309.36,70.52,16.37,135.99,116.99,86.84,238.74,0,0,85.05,98.62-90.13,151.21,0,0,164.21-77.5,59.53-144.46,0,0,40.51-105.56,4.78-151.51-26.02-33.44-54.23-51.46-67.65-58.8-6.27,22.42-16.66,45.46-32.05,68.98,39.22,25.41,79.9,82.07,30.91,141.93,36.12-75.66-20.43-110.85-39.27-119.64-43.25-20.2-76.98,64.52-114.67,116.14-37.7,51.61-141.37,29.9-191.67-82.71-21.8-48.95-54.45-84.46-108.89-89.15-44.34-3.81-94.24,39.05-115.77,80.43l-.82-2.82c-7.33,29.1-19.89,62.11-30.01,110.07-17.45,82.71-77.49,154.86-27.21,239.33,50.23,84.46,56.4,189.76,37.69,258.06-4.9,17.91-11.77,33.96-20.13,48.34,21.82,53.87,97.38,152.76,196.05,115.9,113.1-42.22,251.31-58.44,298.46,27.42,31.6,57.53,35.72,127.35,23.22,166.11,24.61-11.98,46.65-19.92,61.61-19.92,58.63,0,52.37-173.6,35.6-276.82-16.75-103.27-111.01-192.43-152.86-267.5-33.24-59.52,8.59-147.05,60.75-171.42,16.49-8.16,37.29-11.26,52.34-2.19,68.59,41.36,98.43,206.47,117.27,150.16,16.48-49.27,105.16-55.42,143.89-32.61ZM1508.57,1671.13c70.94,33.37,59.81-11.14,66.54-11.33,9.64-.27-6.61,62.78-54.41,28.41-21.1-15.15-12.13-17.08-12.13-17.08ZM1809.93,1451.15c-68.27,38.54-25.53,55.22-29.27,60.82-5.36,8.02-47.37-41.73,8.33-60.81,24.57-8.43,20.95,0,20.95,0ZM1898.93,1655.53c-66.86-18.82-39.71-.45-86.84-22.96-86.55-41.34-74.27,31.27-148.08-10.27-73.82-41.56-161.1-266-154.39-374.08,6.71-108.06,46.99-195.33,107.38-162.09,60.41,33.26-16.79,20.79-16.79,20.79-73.81,24.93-77.17,99.74-50.32,216.12,10.18,44.13,26.63,96.03,46.97,142.79,63.04-21.3,154.21-187.72,105.47-211.35-22.65-10.98-48.07-12.26-48.07-12.26,49.9-30.95,98.86,14.83,84.8,46.61-14.08,31.76-19.68,82.32-2.01,74.37,17.7-7.97,79.56-38.64,62.34-13.93-15.07,21.58-77.89,27.88-116.39,64.41-10.66,10.11-69.97,59.08-66.82,85.96.35,2.97.24,4.96-.19,6.23,30.07,56.99,65.86,97.84,101.65,91.49,108.22-19.22,223.3,70,181.28,58.17ZM1836.36,1192.73c-21.1-15.15-12.13-17.08-12.13-17.08,70.94,33.37,59.81-11.14,66.54-11.33,9.64-.27-6.61,62.78-54.41,28.41ZM1323.16,280.12c-31.04,6.07-64.97,73.27-60.87,99.24,3.52,22.41-.56,22.95-7.06,2.23-12.36-39.24,2.74-77.69,2.74-77.69,14.88-43.95,87.39-78.83,106.24-50.67,18.84,28.15-6.63,20.17-41.04,26.89Z"/>
  </g>
  <g>
    <path d="M95.92,1687.4c8.32-11.48,6.13-20.18,2.82-25.45-8.33-13.3-24.54-8.94-33.25-6.6-15.11,4.07-19.49-.2-20.93-1.6-3.83-3.73-12.24-17.28-7.64-62.43,3.18-31.16,11.15-64.25,16.43-86.15,1.22-5.07,2.28-9.46,3.1-13.11,9.72-43.77,22.37-63.36,32.37-75.49l.28-.34c2.94-3.54,5.81-6.62,8.59-9.59,4.77-5.11,9.61-10.31,13.45-16.64,7.57-3.53,16.27-5.73,26.19-5.73,50.29,0,87.99,42.23,113.12,49.27,25.14,7.04,64.42-113.1,106.82-140.77,46.17-30.1,69.66-5.36,80.33,15.09,10.6,65.11-12.49,163.58-74.05,238.29-60.73,73.71-74.79,143.5-76.9,210.26-13.73-8.34-118.28-73.65-124.16-132.82-6.31-63.36,56.54-49.28,106.8-77.43,50.29-28.15,87.99-112.62,67.03-112.62,0,0-27.45,54.7-73.29,86.82-33.51,23.47-75.4,2.34-125.69,72.72-16.18,22.68-5.63,52.17,16.1,81.74-12.81,11.04-31.73,31.94-47.51,68-.17-17.02-10.48-30.4-22.66-40.28,1.08-1.25,2.13-2.47,3.11-3.6,3.99-4.6,7.13-8.23,9.52-11.52Z"/>
    <path d="M1166.29,482.65c0-.58-.04-1.47-.14-2.75-32.94,37.87-88.84,32.6-155.4,3.41-63.01-27.63-100.5-109.08-157.07-151.32-56.57-42.24-120.9-4.08-160.21,21.11-37.2,23.8-13.76,90.36-13.21,114.62h0c53.02,77.71-52.95,181.18-73.6,214.83-22.77,37.06,24.3,50.63,49.66,65.19,25.33,14.58-11.93,83.83-50.21,94.61,0,0-33.12,19.55-46.04-2.34-12.93-21.9,47.6-4.48,67.8-45.93,20.18-41.45-54.83-73.95-43.97-121.71,10.9-47.77,56.88-59.2,72.47-90.01,22.18-43.89,18.65-81.22,10.94-106.65,0,0,0,0,0,0-13.35-6.69-29.46-33.96-21.97-84.77,0,0,0,0,0-.01-16.64,7.16-46.82,11.31-61.85,22.02-77.29,55.08-31.41,162.7-31.41,162.7,0,0-69.1,41.42-152.89,144.66-68.74,84.7-14.81,207.31,6.76,248.6,27.46,19.02,53.22,69.9,80.15,105.68,50.79,67.45,141.55-17.05,165.16-64.94,32.26-65.45,72.56-96.94,127.01-101.64,44.56-3.83,96.84,29.23,118.94,67.07-.77-22.7,4.29-46.19,19.3-76.47,41.89-84.47,15.72-228.74-125.67-206.47,94.27-46.9,184.34,75.08,175.94,150.17,67.04-65.7,100.52,0,142.41,56.3-114.12-91.5-156.02-21.09-180.09,63.35-16.34,57.25,53.9,193.05,74.82,261.1,19.71,63.96-2.35,110.61-41.48,220.94-49.56,139.77-9.33,280.82,152.73,299.81-.96-13.88-1.11-27.71-.43-41.44,1.35-26.97,5.92-52.3,13.31-74.1-20.31-11.16-52.47-53.67-68.04-85.44-9.85-19.97-17.29-56.98-18.71-80.33-4.33-70.53,65.49-94.39,56.37-66.48-5.15,15.6-35.96,10.73-31.92,90.64,3.51,68.92,47.22,109.63,66.9,129.33,17.74-42.98,26.98-75.56,31.9-112.33,2.82-21.13,4.18-44.11,4.14-70.27,0-.61-.11-6.68-4.07-31.04-5.63-34.72-15.75-85.89-23.39-112.3-7.45-25.5-15.66-57.42-20.04-95.39-15.52,11.88-30.86,11.35-26.67-2.78,2.93-9.79,16-11.95,23.96-31.37-.3-6.78-.46-13.72-.46-20.82,0-9.88.29-19.16.88-28.37h0c.65-11.04,1.38-21.35,2.17-31-16.21-79.79-85.3-113.91-76.81-120.71,14.08-11.27,58.98,40.15,81.07,79.49,6.06-47.62,13.89-74.05,20.1-95.02,3.36-11.34,6.26-21.14,8.04-31.76.63-3.76,1.42-7.2,2.18-10.54,3.37-14.76,6.28-27.51-8.35-61.75l-1.12-2.62c-25.74-60.25-34.41-80.55-34.41-132.47,0-16.59,1.03-32.42,2.79-47.41-16.22-8.79-32.54-14.34-47.25-15.85-69.12-7.03-94.24,42.24-113.09,35.19-10.31-3.84,2.83-41.69,55.72-55.41,0,0,0,0,0,0-22.27-17.05-65.35-54.59-74.58-95.91,12.57,28.15,62.82,70.38,131.92,91.5.01,0,.02,0,.03,0,18.61,1.31,35.93,5.27,51.79,11.02,11.52-60.25,33.49-103,42.33-120.22,1.44-2.85,2.55-6.05,3.37-9.8,1-4.54,1.51-9.73,1.51-15.4ZM799.45,753.33c59.5,103.68-18.11,90.38-20.68,74.14-1.79-11.33,59.85,36.53-5.35-105.88,0,0-.21-14.01,26.03,31.74ZM850.91,432c-20.59,16.35-41.09,88.77-22.35,114.25,20.79,28.24,44.93,39.6,12.01,47.58-32.94,7.97-62.71-66.78-43.91-109.2,0,0,14.91-38.53,50.56-59.05,18.81-10.85,21.45-7.69,3.69,6.42Z"/>
    <path d="M64.45,1726.58c-2.44,3.58-4.83,7.35-7.08,11.29-14.66,25.79-18.23,50.04-10.92,74.13,11.76,38.76,4.41,88.74-1.5,128.9-2.44,16.61-4.55,30.96-4.59,40.14-.02,9.23,5.25,25.26,10.35,40.77,10.27,31.26,21.92,66.68,10.42,95.37-7.86,19.61-8.6,34.06-2.21,42.95,15.01,20.88,67.73,17.88,85.06,16.89,3.03-.17,5.41-.31,7.33-.35.22,0,.43,0,.64,0,13.65,0,17.98,8.78,19.21,12.6,2.51,7.79-.64,16.35-7.66,20.82-28.99,18.48-45.29,37.08-48.47,55.28-2.67,15.33,3.68,32.68,19.43,53.06,10.16,13.16,17.69,23.57,23.73,31.93,18.12,25.06,23.74,32.84,56.94,55.81,41.49,15.31,74.64,46.5,91.06,85.74l.32.77c.55,1.32,1.09,2.6,1.57,3.8,5.31,13.03,13.45,24.26,23.53,32.48,3.62,2.95,7.75,7.26,12.53,12.26,4.04,4.22,11.94,12.48,18.09,17.49,4.31-12.01,11.82-27.05,27.15-27.05.24,0,.48,0,.72.01,15.83.48,21.81,16.65,23.78,21.97,2.6,7.01,4.79,15.67,6.92,24.05,1.82,7.18,4.87,19.21,6.72,22.29,12.02,18.9,26.12,39.73,54.36,67.98,6.23,6.18,15.05,11.84,24.83,15.93l1.68.7c5.48,2.16,13.03,4.54,21.92,5.74,48.33-17.03,72.64-76.19,54.45-94.29-28.39-28.23-52.96-65.88,0-28.23,37.06,26.34,37.08,85.84,10.41,119.22,2.18,1.18,4.02,2.56,5.53,3.93,4.98,4.52,7.84,10.09,10.86,15.98,7.31,14.24,18.35,35.77,73.61,45.91,29.99,5.51,58.62-5.69,79.53-13.87,5.35-2.1,10.01-3.92,14.31-5.32-11.2-38.14-14.27-99.23-5.36-125.3,13.77-40.06,31.44-35.03,19.66,10.03-7.32,28.02,2.2,86.59,27.34,125.8,9.58,6.32,20.01,11.8,31.18,16.33,33.59,13.62,65.29,15.66,81.18,15.66,42.41-.03,105.51-27.53,128.65-45.7,42.19-33.14,75.09-90.85,99.11-132.98,1-1.75,1.97-3.46,2.94-5.15-2.63-4.39-4.81-7.85-6.7-10.66-21.24-31.51-18.68-74.12-16.42-111.72.64-10.62,1.24-20.65,1.24-29.62,0-20.61,3.72-42.23,11.32-65.89-42.05-44.75-106.83-83.89-163.89,7.49,0,0,0,0,0,.01-5.3,14.11-9.65,29.25-13.15,44.9-14.88,66.65,7.42,158.31,29.74,141.64,0,58.33-66.93-33.32-66.93-58.31-22.29,49.97-126.44,16.64-141.32-33.33,52.05,16.65,104.15,41.66,126.46-25.01,22.29-66.65,44.61-116.65,66.93-133.32.83-.62,1.72-1.23,2.66-1.82.21-.65.34-.99.34-.99,52.81-45.35,129.27-32.7,170.98,1.72,11.67-76.7,25.46-219.08,18.7-288.04-1.65-16.88-4.34-33.65-8.33-51.69-17.74,43.59-45.78,80.21-72.46,94-34.98,18.08-91.54,16.81-154.16,6.12,25.55,60.51-36.75,224.54-93.6,230.55-35.39,3.74-64.85-6.72-11.9-20.18,50.73-12.88,84.43-115.34,77.83-215.6-26.37-5.44-53.38-12.23-79.96-19.67-100.56-28.15-193.75-78.6-222.02,44.59,0,0-6.29,86.82,106.8,126.69,39.83,7.03-88,96.24-90.06,152.5-1.37,37.86,3.18,65.56,9,84.69,47,38.2,64.32,113.79,64.32,147.59,0,0,15.73,14.08-3.15,0-18.85-14.08-24.07-105.57-109.94-140.79-44.94-18.42-94.27,14.1-150.8,28.19-56.52,14.05-44.51-39.32-44.51-74.52s-53.57-76.29-78-69.78c-92.7,24.63-34.57,77.42-34.57,77.42,0,0,1.55,15.81-27.23,1.16-47.97-24.44,7.86-135.5,95.82-100.3,87.95,35.2,88.49,147.23,88.49,147.23,0,0,43.99-25.82,115.17-37.55,26.6-4.38,48.95.09,67.57,10.09-7.29-13.42-13.09-30.82-13.09-52.33,0-12.57.63-23.74,2.3-34.44-24.22,9.68-83.01,22.71-109.28-63.4-29.94-98.09-52.22-127.37-108.8-134.42-56.52-7.03-142.38,28.17-217.76-77.42-75.42-105.59-116.25-200.61-91.11-299.12,1.12-4.41,2.3-8.67,3.53-12.79-4.48-20.44-15.94-44.05-29.34-49.63ZM1112.48,2451.41c1.51,12.81-84.81,29.31-2.68,134.47,0,0-1.1,18.45-35.3-8.42-77.58-60.86,35.81-144.39,37.99-126.05ZM870.2,2644.16c9.1,3.32,14.09,69.17,94.1,47.79,0,0,12.86,7.07-8.59,21.75-48.58,33.34-98.52-74.28-85.5-69.54ZM745.43,2398.67c7.38-6.74,21.53-15.28,31.93-17.48,20.96-4.49,59.6-3.34,63.46,6.43,2.41,6.1-47.49-14.07-76.87,13.58-24.86,23.42-8.87,34.64-10.91,41.68-3.69,12.54-29.91-23.85-7.61-44.21ZM734.35,2117.45c5.8-8.93,44.39-.11,64.29,9.87,9.88,4.92,22.19,17.26,28.16,26.02,18.02,26.45-15.36,56.65-16.49,42.96-.6-7.67,17.54-14.94-2.4-45.17-23.57-35.69-77.18-28.09-73.55-33.67ZM227.33,2220.3c3.37-5.63,17.81,46.22,57.64,52.64,33.72,5.42,32.86-14.1,39.68-16.77,12.19-4.72-.66,38.25-30.4,32.99-9.85-1.74-25.25-7.74-33.33-14.65-16.34-13.87-38.99-45.2-33.6-54.21Z"/>
    <path d="M286.52,1794.13c.55,30.54,2.27,60.47,1.64,89.86-.98,46.39,12.8,116.79,84.46,103.53,36.82-6.81,152.83,83.38,201.68,108.73-20.19,56.35,36.48,139.51,115.99,132.65-37.15,49.93-56.72,80.18-66.52,108.19-19.82,2.29-72.54,2.22-90.56-58.92-30.6-103.77-87.97-145.48-207.34-140.79-94.42,3.73-194.2-146.18-213.65-246.35-21.88-112.75,29.1-173.31,51.45-203.26,39.25,46.82,101.04,91.31,122.84,106.36Z"/>
    <path d="M1164.18,91.57c-9.01-12.1-23.37-20.7-43.59-26.11-19.07-5.1-37.92-2.98-54.55-1.1-19.06,2.15-35.52,4-47.56-6.81-24.28-21.82-51.59-27.28-83.5-16.7-30.26,10.04-58.18,32.65-71.53,43.45-4.98,4.08-9.91,8.31-15.12,12.79-6.09,5.23-12.3,10.56-18.87,15.88,50.98,7.93,80.76,49.17,80.76,49.17,0,0,46.9-56.39,105.08-42.69,47.64,11.21,47.64,43.74,47.64,43.74-60.02-62.79-121.79-6.74-151.76,34.74-12.02,8.08-35.65-55.11-118.83-58.89-14.7,8.64-29.82,15.52-46.28,21.1l-2.22,2.27h-4.75c-8.72,2.72-18.1,5.13-27.91,7.17-11.9,2.5-21.46,4.22-29.89,5.74-25.63,4.62-36.29,6.55-60.65,21.37-.47.4-3.75,3.54-8.92,16.17-3.99,9.75-7.68,21.62-10.94,32.08-2.77,8.89-5.38,17.29-7.94,23.65-1.88,4.68-7.14,17.77-19.17,19.9,1.12,14.55-7.56,32.15-13.01,42.84-7.8,15.28-18.12,15.55-15.8,7.51,7.19-9.26,10.33-29.88,7.07-50.97-20.26,24.36-46.5,43.28-76.62,55.12l-.86.33c-10.45,4.16-19.9,11.04-27.35,19.91-20.75,24.69-30.27,40.28-32.27,46.67-26.36,83.46-58.35,112.1-86.28,132.4-5.27,3.83-11.58,16.25-13.48,52.52,42.84-23.15,114.33-14.85,108.95,5.53-4.41,16.7-63.19-16.8-109.48,33.27.01,1.49.02,2.99.03,4.47.05,6.49.1,12.62.07,18.48-.07,24.86-.14,53.05-20.72,59.63-18.99,6.08-34.37-12.63-47.29-30.65-.8-1.12-1.53-2.06-2.18-2.84-2.74,5.18-7.11,16.15-12.12,38.85-5.59,25.34-10.45,57.92-15.14,89.42-3.55,23.83-7.23,48.48-11.29,70.6-10.47,57.02-37.4,87.18-57.06,109.21-7.97,8.92-14.84,16.63-17.54,23.03-11.13,26.37-21.75,73.46-5.36,95.06,8.94,11.78,26.96,16.04,53.53,12.66,8.77-1.12,16.68,3.52,19.67,11.56,1.83,4.91,3.12,14.41-8.7,22.88-1.9,1.36-4.4,3.02-7.57,5.12-19.76,13.08-72.25,47.82-77.84,83.34-12.63,80.2.5,95,5.45,100.57,1.96,2.21,4.42,5,6.16,8.82,42.24-16.71,118.64-7.91,133.82,37.46,18.84,56.32,48.68-108.8,117.27-150.16,15.05-9.07,35.85-5.96,52.34,2.19,52.16,24.36,93.99,111.9,60.75,171.42-41.85,75.07-136.11,164.24-152.86,267.5-16.77,103.22-23.03,276.82,35.6,276.82,14.96,0,37,7.94,61.61,19.92-12.5-38.76-8.38-108.59,23.22-166.11,47.15-85.86,185.36-69.64,298.46-27.42,98.68,36.86,174.23-62.03,196.05-115.9,0,0,0,0,0,0-8.37-14.38-15.22-30.42-20.13-48.33-18.71-68.32-12.53-173.61,37.68-258.08,50.29-84.47-9.75-156.63-27.2-239.33-10.13-47.97-22.68-80.99-30.01-110.1l-.84,2.85c-21.52-41.37-71.42-84.23-115.76-80.42-54.45,4.68-87.1,40.19-108.91,89.15-50.31,112.63-153.96,134.32-191.66,82.72-37.68-51.62-71.42-136.34-114.67-116.15-18.83,8.79-75.39,43.99-39.27,119.66-48.99-59.86-8.31-116.54,30.9-141.94,0,0,0,0,0,0-15.39-23.51-25.78-46.55-32.05-68.97-13.43,7.33-41.63,25.35-67.65,58.8-35.73,45.95,4.78,151.51,4.78,151.51-104.68,66.96,59.53,144.46,59.53,144.46-175.18-52.6-90.13-151.21-90.13-151.21-49.16-121.75,16.31-222.37,86.84-238.74-16.79-170.53,191.82-297.76,200.47-309.36-24.24-133.37,62.39-190.5,128.67-194.5,14.1-30.97,43.56-50.07,77.82-59.27,0,0,0,0,0,0-1.21-.58-2.34-1.23-3.34-1.98-18.85-14.06-52.97-86.49-31.39-70.38,5.95,4.47,25.23,57.86,98.51,66,.01,0,.02,0,.03,0,.02,0,.05.02.07,0,3.79.2,7.57.48,11.32.87,0,0,.01,0,.02,0h0c69.1,7.05,143.1,99.54,199.65,148.81,42.17,36.76,102.63,45.52,152.79-7.91-3.68-17.98-8.09-37.53-11.62-52.94-7.1-31-5.87-63.85,3.55-95.01,6.78-22.4,10.34-47.31,10.61-74.04.09-9.25-1.1-20.46-2.35-32.32-3.09-29.24-6.57-62.19,5-91.81ZM568.01,1451.23c55.7,19.08,13.69,68.84,8.33,60.81-3.74-5.6,39-22.28-29.27-60.82,0,0-3.62-8.42,20.94,0ZM781.88,1659.87c6.73.19-4.4,44.7,66.54,11.33,0,0,8.97,1.92-12.13,17.08-47.8,34.38-64.05-28.68-54.41-28.41ZM639.34,1597.44c35.79,6.36,71.58-34.5,101.65-91.49-.43-1.27-.54-3.26-.19-6.23,3.16-26.88-56.16-75.85-66.82-85.96-38.5-36.52-101.33-42.83-116.39-64.41-17.22-24.71,44.64,5.96,62.34,13.93,17.67,7.95,12.07-42.6-2.01-74.37-14.06-31.77,34.9-77.55,84.8-46.61,0,0-25.42,1.27-48.07,12.26-48.74,23.64,42.42,190.05,105.47,211.35,20.34-46.76,36.8-98.66,46.97-142.79,26.84-116.38,23.48-191.19-50.32-216.12,0,0-77.2,12.47-16.79-20.79,60.39-33.24,100.68,54.03,107.38,162.09,6.71,108.07-80.57,332.52-154.39,374.08-73.81,41.54-61.53-31.07-148.08,10.27-47.13,22.51-19.98,4.13-86.84,22.96-42.02,11.83,73.06-77.39,181.28-58.17ZM466.21,1164.4c6.73.19-4.4,44.7,66.54,11.33,0,0,8.97,1.92-12.13,17.08-47.8,34.37-64.05-28.68-54.41-28.41ZM1101.76,381.66c-6.5,20.72-10.59,20.18-7.06-2.23,4.1-25.97-29.83-93.16-60.87-99.24-34.41-6.72-59.88,1.25-41.04-26.89,18.85-28.16,91.36,6.72,106.24,50.67,0,0,15.1,38.45,2.74,77.69Z"/>
    <path d="M1126.25,1811.29c-2.44-9.37-4.5-18.77-6.19-28.16-50.29-11.06-111.63-34.06-154.2-81.93-.35,1.47-.75,2.97-1.21,4.51-12.54,42.22-123.56,147.81-236.65,114.94-88.56-25.71-138.05-38.99-210.36-8.36-76.5,32.41-72.36,140.23-51.86,188.57,46.84,27.27,94.24,60.94,115.99,78.42,24.42-52.92,57.08-107.36,127.39-89.69,98.76,24.86,181.06,41.16,242.69,49.6-6.76-36.56-27.8-118.72-84.58-156.26-52.31-34.55-41.11-36.95.26-24.11,67.28,20.8,81.08,85.31,116.6,146,35.52,60.66,85.51-43.35,16.02-112.84-19.29-19.29-41.59-94.56,14.49-35.63,75.84,79.71,38.25,106.91,40.22,188.74,3.47-.39,6.57-.9,9.28-1.52,30.73-7.08,77.06-40.38,106.32-86.21-1.64-6.31-3.43-12.8-5.39-19.55-5.01-17.26-10.66-34.67-16.13-51.51-7.82-24.06-15.9-48.94-22.68-75.01ZM653.33,1939.68c-14.67,6.56-41.27,10.47-57.88,10.46-50.17-.04-63.29-54.32-44.03-46.06,10.77,4.66,5.66,27.89,62.45,28.59,67.07.8,100.77-58.32,105.27-50.84,7.21,11.96-36.17,44.71-65.82,57.86Z"/>
  </g>
</svg>