<?xml version="1.0" encoding="UTF-8"?>
<svg id="Layer_1" data-name="Layer 1" xmlns="http://www.w3.org/2000/svg" viewBox="0 0 1553.9 1487.1">
  <defs>
    <style>
      .cls-1 {
        fill-rule: evenodd;
      }
    </style>
  </defs>
  <g id="_463327816" data-name=" 463327816">
    <path id="_463328104" data-name=" 463328104" class="cls-1" d="M1010.7,1335.4c-8.9,0-16.2-7.3-16.2-16.2v-134.5c0-8.9,7.3-16.2,16.2-16.2s16.2,7.3,16.2,16.2v134.5c0,8.9-7.3,16.2-16.2,16.2ZM543.3,1335.4c-8.9,0-16.2-7.3-16.2-16.2v-134.5c0-8.9,7.3-16.2,16.2-16.2s16.2,7.3,16.2,16.2v134.5c0,8.9-7.3,16.2-16.2,16.2Z"/>
    <path id="_463328680" data-name=" 463328680" class="cls-1" d="M777,1142.2c-22.5,0-43.4-8.8-59-24.7-15.5-15.8-24-36.8-24-59.3,0-45.7,37.2-83,83-83s83,37.2,83,83c0,22.5-8.5,43.5-24,59.3-15.6,15.9-36.6,24.7-59,24.7ZM777,1007.6c-27.9,0-50.6,22.7-50.6,50.6s22.3,51.6,50.6,51.6,50.6-22.7,50.6-51.6-22.7-50.6-50.6-50.6Z"/>
    <path id="_463328536" data-name=" 463328536" class="cls-1" d="M1079.5,1487.1H474.5c-50.8,0-92.1-41.3-92.1-92.1,0-24.4,9.6-47.4,27.1-64.9s40.6-27.1,64.9-27.1h605c24.4,0,47.4,9.6,64.9,27.1s27.1,40.6,27.1,64.9c.1,50.9-41.1,92.1-91.9,92.1h0ZM474.5,1335.4c-32.4,0-59.7,27.3-59.7,59.7s26.8,59.7,59.7,59.7h605c32.9,0,59.7-26.8,59.7-59.7s-27.3-59.7-59.7-59.7H474.5Z"/>
    <path id="_463328296" data-name=" 463328296" class="cls-1" d="M1423.4,1200.8H130.5c-34.7,0-67.4-13.7-92.2-38.3-24.8-24.8-38.3-57.5-38.3-92.2V129.5C0,58.1,58.6,0,130.5,0h1292.9c71.9,0,130.5,58.1,130.5,129.5v940.8c0,34.7-13.7,67.4-38.3,92.2-24.7,24.8-57.5,38.3-92.2,38.3ZM130.5,32.4c-54.1,0-98.1,43.6-98.1,97.1v940.8c0,54.1,44,98.1,98.1,98.1h1292.9c54.1,0,98.1-44,98.1-98.1V129.5c0-53.5-44-97.1-98.1-97.1H130.5Z"/>
    <path id="_463328080" data-name=" 463328080" class="cls-1" d="M1446.7,948.9c-8.9,0-16.2-7.3-16.2-16.2V129.5c0-3.4-3.1-6.1-7.1-6.1H130.5c-3.9,0-7.1,2.6-7.1,6.1v803.3c0,8.9-7.3,16.2-16.2,16.2s-16.2-7.3-16.2-16.2V129.5c0-21.2,17.7-38.4,39.5-38.4h1292.9c21.8,0,39.5,17.2,39.5,38.4v803.3c0,8.9-7.3,16.1-16.2,16.1h0Z"/>
    <path id="_463328248" data-name=" 463328248" class="cls-1" d="M1537.7,948.9H16.2C7.3,948.9,0,941.6,0,932.7s7.3-16.2,16.2-16.2h1521.5c8.9,0,16.2,7.3,16.2,16.2,0,9-7.3,16.2-16.2,16.2Z"/>
  </g>
</svg>