<?xml version="1.0" encoding="UTF-8"?>
<svg id="Layer_1" data-name="Layer 1" xmlns="http://www.w3.org/2000/svg" viewBox="0 0 178.65 162.68">
  <defs>
    <style>
      .cls-1 {
        fill: #231f20;
      }

      .cls-2 {
        fill: #fff;
      }
    </style>
  </defs>
  <circle class="cls-1" cx="89.32" cy="79.06" r="17.5"/>
  <path class="cls-2" d="M86.53,94.39c-8.39-1.55-13.94-9.6-12.4-17.99,1.54-8.39,9.6-13.94,17.99-12.39,8.39,1.55,13.94,9.6,12.4,17.99-1.55,8.39-9.6,13.94-17.99,12.39Z"/>
  <path class="cls-1" d="M49.85,1.14c-15.14,7.45-9.73,49.4,12.07,93.69,21.8,44.29,51.75,74.16,66.88,66.71,15.14-7.45,9.73-49.4-12.07-93.69C94.93,23.56,64.98-6.31,49.85,1.14ZM126.69,157.25c-13.36,6.58-42.01-24.27-61.25-63.38C46.19,54.77,38.69,12.2,52.06,5.63c13.36-6.58,42.52,25.33,61.77,64.43,19.25,39.1,26.23,80.62,12.86,87.2Z"/>
  <path class="cls-1" d="M90.56,50.82C41.24,48.81.69,60.85,0,77.71c-.68,16.86,38.75,32.14,88.07,34.15,49.33,2,89.87-10.04,90.55-26.89.68-16.86-38.75-32.15-88.07-34.15ZM89.72,54.36c43.55,1.77,84.53,15.52,83.92,30.4-.61,14.88-42.57,25.26-86.11,23.49-43.55-1.77-83.35-15.47-82.75-30.35.61-14.88,41.39-25.31,84.94-23.54Z"/>
  <path class="cls-1" d="M113.52,99.98c30.13-39.11,43.73-79.15,30.36-89.45-13.36-10.3-48.62,13.06-78.76,52.16-30.13,39.11-43.73,79.15-30.36,89.45,13.36,10.3,48.62-13.06,78.76-52.16ZM111.11,97.24c-26.6,34.52-61.5,60.03-73.3,50.94-11.8-9.09,3.97-49.34,30.57-83.86C94.99,29.8,129.17,5.22,140.97,14.31c11.8,9.09-3.26,48.41-29.86,82.93Z"/>
  <path class="cls-1" d="M53.66,34c0,5.16-4.18,9.33-9.33,9.33s-9.33-4.18-9.33-9.33,4.18-9.33,9.33-9.33,9.33,4.18,9.33,9.33Z"/>
  <path class="cls-1" d="M72.99,143.05c0,5.34-4.33,9.67-9.67,9.67s-9.67-4.33-9.67-9.67,4.33-9.67,9.67-9.67,9.67,4.33,9.67,9.67Z"/>
  <path class="cls-1" d="M163.32,100.72c0,5.34-4.33,9.67-9.67,9.67s-9.67-4.33-9.67-9.67,4.33-9.67,9.67-9.67,9.67,4.33,9.67,9.67Z"/>
</svg>