<?xml version="1.0" encoding="UTF-8"?>
<svg id="Layer_1" xmlns="http://www.w3.org/2000/svg" version="1.1" viewBox="0 0 113 113">
  <!-- Generator: Adobe Illustrator 29.4.0, SVG Export Plug-In . SVG Version: 2.1.0 Build 152)  -->
  <defs>
    <style>
      .st0 {
        fill: none;
        stroke: #fff;
        stroke-linecap: round;
        stroke-linejoin: round;
        stroke-width: 4px;
      }
    </style>
  </defs>
  <line class="st0" x1="66.5" y1="81.5" x2="46.5" y2="81.5"/>
  <line class="st0" x1="21.5" y1="106.5" x2="21.5" y2="111.5"/>
  <line class="st0" x1="91.5" y1="106.5" x2="91.5" y2="111.5"/>
  <circle class="st0" cx="26.5" cy="16.5" r="15"/>
  <path class="st0" d="M1.5,51.5c0-11.05,8.95-20,20-20"/>
  <line class="st0" x1="31.5" y1="31.5" x2="21.5" y2="31.5"/>
  <line class="st0" x1="1.5" y1="51.5" x2="1.5" y2="61.5"/>
  <path class="st0" d="M49.5,42.76c-3.24-6.67-10.08-11.26-18-11.26"/>
  <circle class="st0" cx="86.5" cy="16.5" r="15"/>
  <path class="st0" d="M63.5,42.76c3.24-6.67,10.08-11.26,18-11.26"/>
  <line class="st0" x1="91.5" y1="31.5" x2="81.5" y2="31.5"/>
  <path class="st0" d="M111.5,51.5c0-11.05-8.95-20-20-20"/>
  <line class="st0" x1="111.5" y1="51.5" x2="111.5" y2="61.5"/>
  <circle class="st0" cx="56.5" cy="61.5" r="20"/>
  <path class="st0" d="M21.5,106.5c0-13.82,11.18-25,25-25"/>
  <path class="st0" d="M91.5,106.5c0-13.82-11.18-25-25-25"/>
  <line class="st0" x1="21.5" y1="111.5" x2="91.5" y2="111.5"/>
  <line class="st0" x1="111.5" y1="61.5" x2="76.5" y2="61.5"/>
  <line class="st0" x1="1.5" y1="61.5" x2="36.5" y2="61.5"/>
</svg>