<?xml version="1.0" encoding="UTF-8"?>
<svg id="Layer_1" data-name="Layer 1" xmlns="http://www.w3.org/2000/svg" viewBox="0 0 255.12 61.2">
  <defs>
    <style>
      .cls-1 {
        fill: #231f20;
      }

      .cls-2 {
        fill: #808285;
      }
    </style>
  </defs>
  <path class="cls-1" d="M237.78,40.52v-19.36c.93-.89,1.77-1.57,2.54-2.05.77-.48,1.69-.72,2.77-.72,1.23,0,2.13.39,2.69,1.16.56.77.84,2.2.84,4.28v16.7h8.5v-17.8c0-3.62-.7-6.45-2.11-8.5-1.41-2.04-3.67-3.06-6.79-3.06-1.96,0-3.68.43-5.14,1.3-1.47.87-2.81,1.88-4.05,3.03h-.23l-.58-3.64h-6.94v28.67h8.5ZM209.43,33.96c-.6-.44-.9-1.13-.9-2.05,0-1.12.58-2.08,1.73-2.89,1.16-.81,3.24-1.42,6.24-1.85v5.03c-.77.77-1.5,1.37-2.2,1.79-.69.42-1.52.63-2.49.63s-1.8-.22-2.4-.66M213.39,40.2c1.35-.67,2.64-1.55,3.87-2.63h.23l.58,2.95h6.94v-16.42c0-4.43-.97-7.7-2.92-9.8-1.95-2.1-4.77-3.15-8.47-3.15-2.27,0-4.42.35-6.45,1.04-2.02.69-3.96,1.6-5.81,2.72l3.06,5.61c1.39-.81,2.69-1.44,3.9-1.91,1.21-.46,2.44-.69,3.67-.69,1.58,0,2.71.38,3.38,1.13.67.75,1.05,1.76,1.13,3.03-5.67.58-9.77,1.72-12.31,3.41-2.54,1.7-3.82,4.05-3.82,7.05,0,1.23.2,2.37.61,3.41.4,1.04.97,1.96,1.71,2.74.73.79,1.63,1.41,2.69,1.85,1.06.44,2.24.66,3.55.66,1.62,0,3.1-.34,4.45-1.01M181.77,40.52v-7.05l3.64-4.1,6.47,11.15h9.19l-10.81-16.88,10.06-11.79h-9.25l-9.07,11.39h-.23V0h-8.26v40.52h8.26ZM161.89,40.52v-16.65c.77-1.97,1.74-3.33,2.92-4.1,1.18-.77,2.3-1.16,3.38-1.16.62,0,1.16.04,1.62.12.46.08.96.19,1.5.35l1.39-7.34c-.42-.19-.9-.34-1.42-.43-.52-.1-1.18-.15-1.99-.15-1.46,0-2.93.46-4.39,1.39-1.46.92-2.72,2.37-3.76,4.33h-.23l-.58-5.03h-6.93v28.67h8.5ZM134.81,18.96c1.02-.89,2.21-1.33,3.56-1.33,1.73,0,2.97.5,3.7,1.5.73,1,1.1,2.31,1.1,3.93h-10.35c.31-1.85.97-3.22,1.99-4.1M144.47,40.34c1.79-.58,3.42-1.37,4.88-2.37l-2.83-5.14c-2.08,1.27-4.14,1.91-6.18,1.91-1.93,0-3.56-.49-4.88-1.47-1.33-.98-2.19-2.51-2.57-4.6h17.17c.08-.35.15-.87.23-1.56.08-.69.12-1.42.12-2.2,0-1.97-.25-3.78-.75-5.46-.5-1.68-1.26-3.13-2.28-4.36s-2.29-2.2-3.81-2.89c-1.52-.69-3.3-1.04-5.35-1.04-1.73,0-3.41.35-5.03,1.04-1.62.69-3.05,1.69-4.31,2.98-1.25,1.29-2.26,2.87-3.03,4.74-.77,1.87-1.16,3.96-1.16,6.27s.37,4.51,1.1,6.36c.73,1.85,1.75,3.42,3.06,4.71,1.31,1.29,2.85,2.27,4.62,2.95,1.77.67,3.68,1.01,5.72,1.01,1.73,0,3.5-.29,5.29-.87M115.88,40.52l9.36-28.67h-8.15l-3.76,13.53c-.39,1.43-.76,2.88-1.13,4.36-.37,1.48-.72,2.98-1.07,4.48h-.23c-.39-1.5-.76-3-1.13-4.48-.37-1.48-.74-2.94-1.13-4.36l-3.7-13.53h-8.55l9.65,28.67h9.82ZM61.32,40.52v-19.36c1.77-1.85,3.39-2.78,4.86-2.78,1.23,0,2.13.39,2.69,1.16.56.77.84,2.2.84,4.28v16.7h8.5v-19.36c1.85-1.85,3.49-2.78,4.91-2.78,1.23,0,2.13.39,2.69,1.16.56.77.84,2.2.84,4.28v16.7h8.5v-17.8c0-3.58-.72-6.41-2.17-8.47-1.44-2.06-3.71-3.09-6.79-3.09-1.93,0-3.59.47-5,1.42-1.41.94-2.75,2.07-4.02,3.38-.73-1.54-1.72-2.73-2.98-3.56-1.25-.83-2.9-1.24-4.94-1.24-1.89,0-3.51.43-4.86,1.3-1.35.87-2.62,1.9-3.81,3.09h-.23l-.58-3.7h-6.94v28.67h8.5ZM32.97,33.96c-.6-.44-.9-1.13-.9-2.05,0-1.12.58-2.08,1.73-2.89s3.24-1.42,6.24-1.85v5.03c-.77.77-1.5,1.37-2.2,1.79-.69.42-1.52.63-2.49.63s-1.8-.22-2.4-.66M36.93,40.2c1.35-.67,2.64-1.55,3.87-2.63h.23l.58,2.95h6.94v-16.42c0-4.43-.97-7.7-2.92-9.8-1.95-2.1-4.77-3.15-8.47-3.15-2.27,0-4.42.35-6.44,1.04-2.02.69-3.96,1.6-5.81,2.72l3.06,5.61c1.39-.81,2.69-1.44,3.9-1.91,1.21-.46,2.44-.69,3.67-.69,1.58,0,2.71.38,3.38,1.13.67.75,1.05,1.76,1.13,3.03-5.66.58-9.77,1.72-12.31,3.41-2.54,1.7-3.81,4.05-3.81,7.05,0,1.23.2,2.37.61,3.41.4,1.04.97,1.96,1.71,2.74.73.79,1.63,1.41,2.69,1.85,1.06.44,2.24.66,3.55.66,1.62,0,3.1-.34,4.45-1.01M16.07,40.49c1.46-.48,2.7-1.14,3.7-1.97,1-.83,1.75-1.8,2.25-2.92.5-1.12.75-2.33.75-3.64s-.23-2.44-.69-3.38c-.46-.94-1.07-1.74-1.82-2.4-.75-.65-1.58-1.2-2.48-1.65-.91-.44-1.82-.84-2.75-1.19-.73-.27-1.44-.53-2.11-.78-.68-.25-1.27-.51-1.79-.78-.52-.27-.93-.57-1.24-.9-.31-.33-.46-.72-.46-1.18,0-1.5,1.08-2.25,3.24-2.25,1,0,2,.21,3,.64,1,.42,2.02,1.02,3.06,1.79l3.81-5.09c-1.23-.92-2.68-1.76-4.33-2.51-1.66-.75-3.58-1.13-5.78-1.13-1.66,0-3.16.22-4.51.67-1.35.44-2.5,1.05-3.47,1.82-.96.77-1.7,1.72-2.23,2.83-.52,1.12-.78,2.33-.78,3.64,0,1.19.23,2.25.69,3.15.46.91,1.06,1.7,1.79,2.37.73.67,1.54,1.24,2.43,1.7.89.46,1.77.87,2.66,1.21.73.31,1.45.59,2.14.84.69.25,1.32.53,1.88.84.56.31,1,.65,1.33,1.01.33.37.49.78.49,1.24,0,.77-.29,1.37-.87,1.79-.58.42-1.5.64-2.77.64s-2.45-.25-3.64-.75c-1.19-.5-2.45-1.25-3.76-2.25l-3.82,5.32c1.46,1.19,3.19,2.16,5.17,2.89,1.98.73,3.92,1.1,5.81,1.1s3.62-.24,5.09-.72"/>
  <path class="cls-2" d="M246.77,60.95v-8.58c0-.67-.01-1.32-.04-1.96-.03-.64-.06-1.29-.08-1.96h.08l1.55,2.75,5.83,9.75h1.01v-13.82h-.92v8.47c0,.67.01,1.34.04,2.01.03.67.06,1.34.08,2.01h-.08l-1.55-2.75-5.83-9.75h-1.01v13.82h.92ZM235.06,59.87c-.58-.3-1.07-.73-1.48-1.28-.41-.55-.72-1.22-.94-1.99-.22-.78-.34-1.65-.34-2.61s.11-1.81.34-2.58c.22-.77.54-1.42.94-1.96.4-.54.9-.95,1.48-1.25.58-.29,1.22-.44,1.92-.44s1.33.15,1.91.44c.57.29,1.07.71,1.48,1.25.41.54.73,1.19.95,1.96.22.77.34,1.63.34,2.58s-.11,1.83-.34,2.61c-.22.78-.54,1.44-.95,1.99-.41.55-.91.98-1.48,1.28-.57.3-1.21.45-1.91.45s-1.34-.15-1.92-.45M239.29,60.69c.7-.34,1.3-.83,1.8-1.46.5-.63.89-1.39,1.17-2.27.28-.89.42-1.88.42-2.97s-.14-2.07-.42-2.95c-.28-.87-.67-1.62-1.17-2.24-.5-.62-1.1-1.1-1.8-1.43-.7-.33-1.47-.49-2.31-.49s-1.59.16-2.29.49c-.7.33-1.3.8-1.8,1.43-.5.62-.9,1.37-1.17,2.24-.28.87-.42,1.86-.42,2.95s.14,2.08.42,2.97c.28.89.67,1.65,1.17,2.27.5.63,1.1,1.11,1.8,1.46.7.34,1.46.51,2.29.51s1.61-.17,2.31-.51M228.11,47.13h-.96v13.82h.96v-13.82ZM220.1,60.95v-12.98h4.4v-.84h-9.77v.84h4.4v12.98h.96ZM212.01,60.68c.66-.35,1.25-.83,1.78-1.45l-.57-.61c-.5.56-1.03.98-1.59,1.27-.56.29-1.2.43-1.91.43s-1.41-.15-2-.45c-.59-.3-1.1-.72-1.52-1.27-.42-.55-.74-1.21-.96-1.98-.22-.78-.34-1.65-.34-2.61s.11-1.83.34-2.6c.22-.77.55-1.42.97-1.96.43-.54.94-.95,1.55-1.25.61-.29,1.29-.44,2.04-.44.63,0,1.2.13,1.7.39.5.26.94.6,1.32,1.04l.57-.65c-.36-.43-.85-.82-1.47-1.15-.62-.34-1.33-.5-2.14-.5-.88,0-1.68.16-2.4.49-.72.33-1.34.8-1.86,1.43-.52.62-.92,1.37-1.21,2.25-.29.88-.43,1.87-.43,2.96s.14,2.1.42,2.99.67,1.64,1.18,2.26c.51.62,1.12,1.1,1.83,1.44.71.34,1.5.5,2.35.5.89,0,1.67-.18,2.33-.52M192.37,60.95v-8.58c0-.67-.01-1.32-.04-1.96-.03-.64-.06-1.29-.08-1.96h.08l1.55,2.75,5.83,9.75h1.01v-13.82h-.92v8.47c0,.67.01,1.34.04,2.01.03.67.06,1.34.08,2.01h-.08l-1.55-2.75-5.83-9.75h-1.01v13.82h.92ZM184.48,60.94c.56-.18,1.05-.47,1.49-.9.43-.43.78-1,1.05-1.71.27-.71.4-1.61.4-2.68v-8.51h-.9v8.41c0,.92-.1,1.69-.31,2.3-.21.61-.49,1.1-.83,1.47-.34.37-.74.63-1.2.79-.45.15-.93.23-1.44.23s-.95-.08-1.39-.23c-.44-.15-.83-.42-1.16-.79s-.6-.86-.81-1.47c-.2-.61-.3-1.37-.3-2.3v-8.41h-.96v8.51c0,1.08.13,1.97.39,2.68.26.71.6,1.28,1.04,1.71.43.43.93.73,1.49.9.56.18,1.13.26,1.72.26s1.18-.09,1.74-.26M169.12,60.95v-6.65h5.56v-.84h-5.56v-5.49h6.56v-.84h-7.53v13.82h.96ZM158.46,60.92c.55-.19,1.01-.45,1.39-.78.38-.33.68-.72.89-1.17.21-.45.31-.95.31-1.48s-.08-.99-.24-1.37-.37-.72-.64-1c-.27-.28-.57-.52-.92-.73-.35-.21-.72-.4-1.11-.57l-2.1-.92c-.25-.11-.52-.24-.8-.39s-.54-.32-.78-.52-.43-.44-.59-.72c-.15-.28-.23-.62-.23-1.03,0-.75.28-1.36.84-1.8.56-.45,1.3-.67,2.22-.67.7,0,1.32.13,1.87.39.55.26,1.02.6,1.43,1.02l.55-.63c-.42-.45-.95-.84-1.6-1.16s-1.39-.49-2.23-.49c-.57,0-1.11.08-1.6.25s-.92.4-1.28.7c-.36.3-.64.66-.84,1.07-.2.41-.3.87-.3,1.37s.09.96.27,1.33c.18.37.41.69.68.96.27.27.58.5.91.68s.65.34.94.46l2.1.94c.34.15.65.31.95.46.3.15.56.34.79.56.22.22.4.47.53.78.13.3.2.67.2,1.1,0,.83-.31,1.49-.92,2s-1.45.77-2.52.77c-.8,0-1.54-.17-2.24-.5s-1.3-.79-1.8-1.36l-.63.67c.55.62,1.21,1.11,1.99,1.5.78.38,1.68.58,2.68.58.67,0,1.28-.09,1.82-.28M146.97,60.95v-12.98h4.4v-.84h-9.77v.84h4.4v12.98h.96ZM140.01,60.95v-.84h-6.81v-6.08h5.54v-.84h-5.54v-5.22h6.6v-.84h-7.57v13.82h7.78ZM129.22,60.95v-.84h-6.81v-6.08h5.54v-.84h-5.54v-5.22h6.6v-.84h-7.57v13.82h7.78ZM107.54,60.95v-9.08c0-.57-.01-1.19-.04-1.86-.03-.66-.06-1.29-.08-1.88h.08l1.09,3.08,3,8.22h.84l2.98-8.22,1.07-3.08h.08c-.03.59-.06,1.21-.08,1.88-.03.66-.04,1.28-.04,1.86v9.08h.94v-13.82h-1.38l-2.87,8.11c-.18.5-.36,1.01-.52,1.52-.17.51-.34,1.02-.52,1.54h-.08c-.18-.52-.36-1.03-.55-1.54-.18-.51-.36-1.02-.55-1.52l-2.89-8.11h-1.36v13.82h.9ZM88.54,60.95v-9.08c0-.57-.01-1.19-.04-1.86-.03-.66-.06-1.29-.08-1.88h.08l1.09,3.08,3,8.22h.84l2.98-8.22,1.07-3.08h.08c-.03.59-.06,1.21-.08,1.88-.03.66-.04,1.28-.04,1.86v9.08h.94v-13.82h-1.38l-2.87,8.11c-.18.5-.36,1.01-.52,1.52-.17.51-.34,1.02-.52,1.54h-.08c-.18-.52-.36-1.03-.55-1.54-.18-.51-.36-1.02-.55-1.52l-2.89-8.11h-1.36v13.82h.9ZM77.2,47.95h2.75c1.22,0,2.15.21,2.81.64.66.43.99,1.16.99,2.19s-.32,1.78-.97,2.27c-.65.5-1.59.74-2.82.74h-2.75v-5.85ZM77.2,60.95v-6.35h2.94l3.75,6.35h1.11l-3.82-6.42c1.09-.14,1.95-.52,2.59-1.15.64-.63.95-1.5.95-2.6,0-.66-.11-1.22-.32-1.68-.22-.46-.52-.84-.91-1.13-.39-.29-.87-.51-1.43-.64-.56-.13-1.18-.2-1.87-.2h-3.96v13.82h.96ZM65.45,59.87c-.58-.3-1.07-.73-1.48-1.28-.41-.55-.72-1.22-.94-1.99-.22-.78-.34-1.65-.34-2.61s.11-1.81.34-2.58c.22-.77.54-1.42.94-1.96.4-.54.9-.95,1.48-1.25.58-.29,1.22-.44,1.92-.44s1.33.15,1.91.44c.57.29,1.07.71,1.48,1.25.41.54.73,1.19.95,1.96.22.77.34,1.63.34,2.58s-.11,1.83-.34,2.61c-.22.78-.54,1.44-.95,1.99-.41.55-.91.98-1.48,1.28-.57.3-1.21.45-1.91.45s-1.34-.15-1.92-.45M69.67,60.69c.7-.34,1.3-.83,1.8-1.46.5-.63.89-1.39,1.17-2.27.28-.89.42-1.88.42-2.97s-.14-2.07-.42-2.95c-.28-.87-.67-1.62-1.17-2.24-.5-.62-1.1-1.1-1.8-1.43-.7-.33-1.47-.49-2.31-.49s-1.59.16-2.29.49c-.7.33-1.3.8-1.8,1.43-.5.62-.9,1.37-1.17,2.24-.28.87-.42,1.86-.42,2.95s.14,2.08.42,2.97c.28.89.67,1.65,1.17,2.27.5.63,1.1,1.11,1.8,1.46.7.34,1.46.51,2.29.51s1.61-.17,2.31-.51M53.74,60.95v-6.65h5.56v-.84h-5.56v-5.49h6.56v-.84h-7.53v13.82h.96Z"/>
</svg>